<svg width="16" height="17" viewBox="0 0 16 17" fill="none" xmlns="http://www.w3.org/2000/svg">
<path id="Vector" d="M8 0.5C10.1217 0.5 12.1566 1.34285 13.6569 2.84315C15.1571 4.34344 16 6.37827 16 8.5C16 10.6217 15.1571 12.6566 13.6569 14.1569C12.1566 15.6571 10.1217 16.5 8 16.5C5.87827 16.5 3.84344 15.6571 2.34315 14.1569C0.842855 12.6566 0 10.6217 0 8.5C0 6.37827 0.842855 4.34344 2.34315 2.84315C3.84344 1.34285 5.87827 0.5 8 0.5ZM7.25 4.25V8.5C7.25 8.75 7.375 8.98438 7.58437 9.125L10.5844 11.125C10.9281 11.3563 11.3937 11.2625 11.625 10.9156C11.8563 10.5687 11.7625 10.1063 11.4156 9.875L8.75 8.1V4.25C8.75 3.83437 8.41563 3.5 8 3.5C7.58437 3.5 7.25 3.83437 7.25 4.25Z" fill="#5A716A"/>
</svg>
