<svg width="102" height="71" viewBox="0 0 102 71" fill="none" xmlns="http://www.w3.org/2000/svg">
<path d="M69 2C69 9.1 63.7125 14.9688 56.8625 15.875C56.4187 12.5375 54.95 9.525 52.7812 7.16875C55.175 2.89375 59.75 0 65 0H67C68.1063 0 69 0.89375 69 2ZM37 6C37 4.89375 37.8937 4 39 4H41C48.7312 4 55 10.2688 55 18V20V26C55 27.1063 54.1063 28 53 28C51.8938 28 51 27.1063 51 26V20C43.2688 20 37 13.7312 37 6Z" fill="#5A716A"/>
<path d="M8.92531 64.7639C8.33331 64.7639 7.77331 64.6839 7.24531 64.5239C6.71731 64.3799 6.24531 64.1799 5.82931 63.9239C5.41331 63.6519 5.06931 63.3399 4.79731 62.9879C4.52531 62.6359 4.34931 62.2599 4.26931 61.8599L5.18131 61.6199L4.86931 64.4759H0.789307V46.7399H5.27731V54.8039L4.31731 54.4919C4.41331 54.0599 4.59731 53.6599 4.86931 53.2919C5.15731 52.9239 5.50131 52.6039 5.90131 52.3319C6.30131 52.0439 6.74931 51.8279 7.24531 51.6839C7.74131 51.5239 8.26131 51.4439 8.80531 51.4439C9.90931 51.4439 10.8773 51.7319 11.7093 52.3079C12.5573 52.8679 13.2213 53.6519 13.7013 54.6599C14.1973 55.6679 14.4453 56.8199 14.4453 58.1159C14.4453 59.4119 14.2053 60.5639 13.7253 61.5719C13.2453 62.5639 12.5893 63.3479 11.7573 63.9239C10.9253 64.4839 9.98131 64.7639 8.92531 64.7639ZM7.62931 61.0919C8.14131 61.0919 8.57331 60.9719 8.92531 60.7319C9.29331 60.4759 9.57331 60.1319 9.76531 59.6999C9.97331 59.2519 10.0773 58.7239 10.0773 58.1159C10.0773 57.4919 9.98131 56.9559 9.78931 56.5079C9.59731 56.0599 9.31731 55.7239 8.94931 55.4999C8.58131 55.2599 8.14131 55.1399 7.62931 55.1399C7.11731 55.1399 6.67731 55.2599 6.30931 55.4999C5.94131 55.7239 5.65331 56.0599 5.44531 56.5079C5.25331 56.9559 5.15731 57.4919 5.15731 58.1159C5.15731 58.7239 5.25331 59.2519 5.44531 59.6999C5.65331 60.1319 5.94131 60.4759 6.30931 60.7319C6.67731 60.9719 7.11731 61.0919 7.62931 61.0919Z" fill="#5A716A"/>
<path d="M21.2109 64.7639C20.2509 64.7639 19.4349 64.5639 18.7629 64.1639C18.0909 63.7479 17.5789 63.1559 17.2269 62.3879C16.8749 61.6199 16.6989 60.6919 16.6989 59.6039V51.7079H21.1629V59.1479C21.1629 59.5639 21.2349 59.9159 21.3789 60.2039C21.5229 60.4919 21.7229 60.7159 21.9789 60.8759C22.2349 61.0199 22.5469 61.0919 22.9149 61.0919C23.2029 61.0919 23.4589 61.0519 23.6829 60.9719C23.9229 60.8919 24.1229 60.7719 24.2829 60.6119C24.4429 60.4359 24.5709 60.2439 24.6669 60.0359C24.7629 59.8119 24.8109 59.5719 24.8109 59.3159V51.7079H29.2749V64.4999H25.1469L24.9069 61.9079L25.7469 61.6199C25.5709 62.2119 25.2589 62.7479 24.8109 63.2279C24.3629 63.7079 23.8269 64.0839 23.2029 64.3559C22.5789 64.6279 21.9149 64.7639 21.2109 64.7639Z" fill="#5A716A"/>
<path d="M37.3437 64.7639C36.2717 64.7639 35.3117 64.4839 34.4637 63.9239C33.6317 63.3479 32.9757 62.5639 32.4957 61.5719C32.0157 60.5639 31.7757 59.4119 31.7757 58.1159C31.7757 56.8199 32.0157 55.6759 32.4957 54.6839C32.9917 53.6759 33.6637 52.8839 34.5117 52.3079C35.3597 51.7319 36.3277 51.4439 37.4157 51.4439C37.9757 51.4439 38.5117 51.5239 39.0237 51.6839C39.5357 51.8439 39.9917 52.0679 40.3917 52.3559C40.8077 52.6439 41.1517 52.9799 41.4237 53.3639C41.7117 53.7479 41.8957 54.1559 41.9757 54.5879L40.9437 54.8759V46.7399H45.4317V64.4999H41.3757L41.0637 61.6439L41.9517 61.8119C41.8877 62.2279 41.7197 62.6119 41.4477 62.9639C41.1757 63.3159 40.8317 63.6279 40.4157 63.8999C40.0157 64.1719 39.5437 64.3799 38.9997 64.5239C38.4717 64.6839 37.9197 64.7639 37.3437 64.7639ZM38.6157 61.1159C39.1277 61.1159 39.5677 60.9959 39.9357 60.7559C40.3037 60.4999 40.5837 60.1559 40.7757 59.7239C40.9677 59.2759 41.0637 58.7399 41.0637 58.1159C41.0637 57.4919 40.9677 56.9559 40.7757 56.5079C40.5837 56.0439 40.3037 55.6999 39.9357 55.4759C39.5677 55.2359 39.1277 55.1159 38.6157 55.1159C38.1037 55.1159 37.6637 55.2359 37.2957 55.4759C36.9277 55.6999 36.6477 56.0439 36.4557 56.5079C36.2637 56.9559 36.1677 57.4919 36.1677 58.1159C36.1677 58.7399 36.2637 59.2759 36.4557 59.7239C36.6477 60.1559 36.9277 60.4999 37.2957 60.7559C37.6637 60.9959 38.1037 61.1159 38.6157 61.1159Z" fill="#5A716A"/>
<path d="M53.2578 64.7639C52.1858 64.7639 51.2258 64.4839 50.3778 63.9239C49.5458 63.3479 48.8898 62.5639 48.4098 61.5719C47.9298 60.5639 47.6898 59.4119 47.6898 58.1159C47.6898 56.8199 47.9298 55.6759 48.4098 54.6839C48.9058 53.6759 49.5778 52.8839 50.4258 52.3079C51.2738 51.7319 52.2418 51.4439 53.3298 51.4439C53.8898 51.4439 54.4258 51.5239 54.9378 51.6839C55.4498 51.8439 55.9058 52.0679 56.3058 52.3559C56.7218 52.6439 57.0658 52.9799 57.3378 53.3639C57.6258 53.7479 57.8098 54.1559 57.8898 54.5879L56.8578 54.8759V46.7399H61.3458V64.4999H57.2898L56.9778 61.6439L57.8658 61.8119C57.8018 62.2279 57.6338 62.6119 57.3618 62.9639C57.0898 63.3159 56.7458 63.6279 56.3298 63.8999C55.9298 64.1719 55.4578 64.3799 54.9138 64.5239C54.3858 64.6839 53.8338 64.7639 53.2578 64.7639ZM54.5298 61.1159C55.0418 61.1159 55.4818 60.9959 55.8498 60.7559C56.2178 60.4999 56.4978 60.1559 56.6898 59.7239C56.8818 59.2759 56.9778 58.7399 56.9778 58.1159C56.9778 57.4919 56.8818 56.9559 56.6898 56.5079C56.4978 56.0439 56.2178 55.6999 55.8498 55.4759C55.4818 55.2359 55.0418 55.1159 54.5298 55.1159C54.0178 55.1159 53.5778 55.2359 53.2098 55.4759C52.8418 55.6999 52.5618 56.0439 52.3698 56.5079C52.1778 56.9559 52.0818 57.4919 52.0818 58.1159C52.0818 58.7399 52.1778 59.2759 52.3698 59.7239C52.5618 60.1559 52.8418 60.4999 53.2098 60.7559C53.5778 60.9959 54.0178 61.1159 54.5298 61.1159Z" fill="#5A716A"/>
<path d="M64.6599 64.4999V51.7079H69.1239V64.4999H64.6599ZM66.8919 49.2839C66.0759 49.2839 65.4439 49.0999 64.9959 48.7319C64.5479 48.3479 64.3239 47.8119 64.3239 47.1239C64.3239 46.4839 64.5479 45.9639 64.9959 45.5639C65.4599 45.1479 66.0919 44.9399 66.8919 44.9399C67.6919 44.9399 68.3159 45.1319 68.7639 45.5159C69.2279 45.8839 69.4599 46.4199 69.4599 47.1239C69.4599 47.7639 69.2279 48.2839 68.7639 48.6839C68.2999 49.0839 67.6759 49.2839 66.8919 49.2839Z" fill="#5A716A"/>
<path d="M72.6252 64.4999V51.7079H76.8012L76.9932 54.2999L76.0812 54.5879C76.2412 53.9799 76.5532 53.4439 77.0172 52.9799C77.4812 52.4999 78.0332 52.1239 78.6732 51.8519C79.3132 51.5799 79.9852 51.4439 80.6892 51.4439C81.6492 51.4439 82.4572 51.6439 83.1132 52.0439C83.7852 52.4279 84.2892 53.0119 84.6252 53.7959C84.9772 54.5639 85.1532 55.5079 85.1532 56.6279V64.4999H80.6892V56.9879C80.6892 56.5719 80.6252 56.2279 80.4972 55.9559C80.3692 55.6679 80.1772 55.4519 79.9212 55.3079C79.6652 55.1639 79.3612 55.0999 79.0092 55.1159C78.7372 55.1159 78.4812 55.1559 78.2412 55.2359C78.0172 55.3159 77.8172 55.4439 77.6412 55.6199C77.4652 55.7799 77.3292 55.9639 77.2332 56.1719C77.1532 56.3799 77.1132 56.6119 77.1132 56.8679V64.4999H74.8812C74.3372 64.4999 73.8732 64.4999 73.4892 64.4999C73.1212 64.4999 72.8332 64.4999 72.6252 64.4999Z" fill="#5A716A"/>
<path d="M94.2329 70.0199C93.1289 70.0199 92.0329 69.8599 90.9449 69.5399C89.8569 69.2359 88.9689 68.8359 88.2809 68.3399L89.7929 65.2919C90.1449 65.5159 90.5129 65.7079 90.8969 65.8679C91.2969 66.0439 91.7129 66.1719 92.1449 66.2519C92.5769 66.3319 93.0329 66.3719 93.5129 66.3719C94.2809 66.3719 94.9049 66.2599 95.3849 66.0359C95.8809 65.8279 96.2409 65.4999 96.4649 65.0519C96.7049 64.6039 96.8249 64.0279 96.8249 63.3239V61.3079L97.7609 61.4279C97.6489 61.9559 97.3769 62.4359 96.9449 62.8679C96.5129 63.2839 95.9689 63.6199 95.3129 63.8759C94.6729 64.1159 94.0009 64.2359 93.2969 64.2359C92.1449 64.2359 91.1289 63.9799 90.2489 63.4679C89.3689 62.9399 88.6729 62.2119 88.1609 61.2839C87.6489 60.3559 87.3929 59.2679 87.3929 58.0199C87.3929 56.7239 87.6409 55.5879 88.1369 54.6119C88.6489 53.6199 89.3369 52.8439 90.2009 52.2839C91.0649 51.7239 92.0569 51.4439 93.1769 51.4439C93.6569 51.4439 94.1129 51.4919 94.5449 51.5879C94.9769 51.6839 95.3769 51.8199 95.7449 51.9959C96.1289 52.1719 96.4649 52.3879 96.7529 52.6439C97.0409 52.8839 97.2729 53.1479 97.4489 53.4359C97.6409 53.7239 97.7689 54.0279 97.8329 54.3479L96.9209 54.5639L97.1369 51.7079H101.313V63.3239C101.313 64.3959 101.153 65.3399 100.833 66.1559C100.513 66.9879 100.041 67.6919 99.4169 68.2679C98.8089 68.8439 98.0649 69.2759 97.1849 69.5639C96.3209 69.8679 95.3369 70.0199 94.2329 70.0199ZM94.3529 60.9719C94.8969 60.9719 95.3609 60.8519 95.7449 60.6119C96.1289 60.3719 96.4249 60.0359 96.6329 59.6039C96.8409 59.1719 96.9449 58.6519 96.9449 58.0439C96.9449 57.4359 96.8409 56.9159 96.6329 56.4839C96.4249 56.0359 96.1289 55.6999 95.7449 55.4759C95.3609 55.2359 94.8969 55.1159 94.3529 55.1159C93.8089 55.1159 93.3449 55.2359 92.9609 55.4759C92.5769 55.6999 92.2809 56.0359 92.0729 56.4839C91.8809 56.9159 91.7849 57.4359 91.7849 58.0439C91.7849 58.6519 91.8809 59.1719 92.0729 59.6039C92.2809 60.0359 92.5769 60.3719 92.9609 60.6119C93.3449 60.8519 93.8089 60.9719 94.3529 60.9719Z" fill="#5A716A"/>
</svg>
