<svg width="72" height="72" viewBox="0 0 72 72" fill="none" xmlns="http://www.w3.org/2000/svg">
<g id="Group 49">
<circle id="Ellipse 9" cx="36" cy="36" r="36" fill="#5A716A"/>
<g id="Vector">
<path d="M36 72C45.5478 72 54.7045 68.2072 61.4558 61.4558C68.2072 54.7045 72 45.5478 72 36C72 26.4522 68.2072 17.2955 61.4558 10.5442C54.7045 3.79285 45.5478 0 36 0C26.4522 0 17.2955 3.79285 10.5442 10.5442C3.79285 17.2955 0 26.4522 0 36C0 45.5478 3.79285 54.7045 10.5442 61.4558C17.2955 68.2072 26.4522 72 36 72ZM24.6094 24.6094C25.9312 23.2875 28.0687 23.2875 29.3766 24.6094L35.9859 31.2188L42.5953 24.6094C43.9172 23.2875 46.0547 23.2875 47.3625 24.6094C48.6703 25.9312 48.6844 28.0687 47.3625 29.3766L40.7531 35.9859L47.3625 42.5953C48.6844 43.9172 48.6844 46.0547 47.3625 47.3625C46.0406 48.6703 43.9031 48.6844 42.5953 47.3625L35.9859 40.7531L29.3766 47.3625C28.0547 48.6844 25.9172 48.6844 24.6094 47.3625C23.3016 46.0406 23.2875 43.9031 24.6094 42.5953L31.2188 35.9859L24.6094 29.3766C23.2875 28.0547 23.2875 25.9172 24.6094 24.6094Z" fill="white"/>
<path d="M36 72C45.5478 72 54.7045 68.2072 61.4558 61.4558C68.2072 54.7045 72 45.5478 72 36C72 26.4522 68.2072 17.2955 61.4558 10.5442C54.7045 3.79285 45.5478 0 36 0C26.4522 0 17.2955 3.79285 10.5442 10.5442C3.79285 17.2955 0 26.4522 0 36C0 45.5478 3.79285 54.7045 10.5442 61.4558C17.2955 68.2072 26.4522 72 36 72ZM24.6094 24.6094C25.9312 23.2875 28.0687 23.2875 29.3766 24.6094L35.9859 31.2188L42.5953 24.6094C43.9172 23.2875 46.0547 23.2875 47.3625 24.6094C48.6703 25.9312 48.6844 28.0687 47.3625 29.3766L40.7531 35.9859L47.3625 42.5953C48.6844 43.9172 48.6844 46.0547 47.3625 47.3625C46.0406 48.6703 43.9031 48.6844 42.5953 47.3625L35.9859 40.7531L29.3766 47.3625C28.0547 48.6844 25.9172 48.6844 24.6094 47.3625C23.3016 46.0406 23.2875 43.9031 24.6094 42.5953L31.2188 35.9859L24.6094 29.3766C23.2875 28.0547 23.2875 25.9172 24.6094 24.6094Z" fill="#5A716A" fill-opacity="0.3"/>
</g>
</g>
</svg>
