<svg width="16" height="13" viewBox="0 0 16 13" fill="none" xmlns="http://www.w3.org/2000/svg">
<path id="Vector" d="M3.6 0.0999756C4.13043 0.0999756 4.63914 0.310689 5.01421 0.685762C5.38929 1.06083 5.6 1.56954 5.6 2.09998C5.6 2.63041 5.38929 3.13912 5.01421 3.51419C4.63914 3.88926 4.13043 4.09998 3.6 4.09998C3.06957 4.09998 2.56086 3.88926 2.18579 3.51419C1.81071 3.13912 1.6 2.63041 1.6 2.09998C1.6 1.56954 1.81071 1.06083 2.18579 0.685762C2.56086 0.310689 3.06957 0.0999756 3.6 0.0999756ZM12.8 0.0999756C13.3304 0.0999756 13.8391 0.310689 14.2142 0.685762C14.5893 1.06083 14.8 1.56954 14.8 2.09998C14.8 2.63041 14.5893 3.13912 14.2142 3.51419C13.8391 3.88926 13.3304 4.09998 12.8 4.09998C12.2696 4.09998 11.7609 3.88926 11.3858 3.51419C11.0107 3.13912 10.8 2.63041 10.8 2.09998C10.8 1.56954 11.0107 1.06083 11.3858 0.685762C11.7609 0.310689 12.2696 0.0999756 12.8 0.0999756ZM0 7.56748C0 6.09498 1.195 4.89998 2.6675 4.89998H3.735C4.1325 4.89998 4.51 4.98748 4.85 5.14248C4.8175 5.32248 4.8025 5.50998 4.8025 5.69998C4.8025 6.65498 5.2225 7.51248 5.885 8.09998C5.88 8.09998 5.875 8.09998 5.8675 8.09998H0.5325C0.24 8.09998 0 7.85998 0 7.56748ZM10.1325 8.09998C10.1275 8.09998 10.1225 8.09998 10.115 8.09998C10.78 7.51248 11.1975 6.65498 11.1975 5.69998C11.1975 5.50998 11.18 5.32498 11.15 5.14248C11.49 4.98498 11.8675 4.89998 12.265 4.89998H13.3325C14.805 4.89998 16 6.09498 16 7.56748C16 7.86248 15.76 8.09998 15.4675 8.09998H10.1325ZM5.6 5.69998C5.6 5.06346 5.85286 4.45301 6.30294 4.00292C6.75303 3.55283 7.36348 3.29998 8 3.29998C8.63652 3.29998 9.24697 3.55283 9.69706 4.00292C10.1471 4.45301 10.4 5.06346 10.4 5.69998C10.4 6.3365 10.1471 6.94694 9.69706 7.39703C9.24697 7.84712 8.63652 8.09998 8 8.09998C7.36348 8.09998 6.75303 7.84712 6.30294 7.39703C5.85286 6.94694 5.6 6.3365 5.6 5.69998ZM3.2 12.2325C3.2 10.3925 4.6925 8.89998 6.5325 8.89998H9.4675C11.3075 8.89998 12.8 10.3925 12.8 12.2325C12.8 12.6 12.5025 12.9 12.1325 12.9H3.8675C3.5 12.9 3.2 12.6025 3.2 12.2325Z" fill="#5A716A"/>
</svg>
