<svg width="72" height="72" viewBox="0 0 72 72" fill="none" xmlns="http://www.w3.org/2000/svg">
<circle cx="36" cy="36" r="36" fill="#CDD4D2"/>
<path d="M52.2442 29.7442L52.5977 29.3906L52.5624 29.3553C53.7385 27.8406 53.61 25.6505 52.232 24.2577C50.7275 22.737 48.2719 22.7397 46.7558 24.2558L46.7557 24.256L31.4998 39.5255L25.2461 33.2718C25.2457 33.2714 25.2453 33.271 25.245 33.2707C23.738 31.7487 21.2846 31.7713 19.7718 33.268C18.2511 34.7725 18.2538 37.2281 19.7699 38.7442L28.768 47.7423C28.7684 47.7427 28.7687 47.743 28.7691 47.7434C30.2737 49.263 32.7285 49.2599 34.2442 47.7442L52.2442 29.7442ZM61.1023 61.1023C54.4448 67.7598 45.4152 71.5 36 71.5C26.5848 71.5 17.5553 67.7598 10.8977 61.1023C4.24017 54.4448 0.5 45.4152 0.5 36C0.5 26.5848 4.24017 17.5553 10.8977 10.8977C17.5553 4.24017 26.5848 0.5 36 0.5C45.4152 0.5 54.4448 4.24017 61.1023 10.8977C67.7598 17.5553 71.5 26.5848 71.5 36C71.5 45.4152 67.7598 54.4448 61.1023 61.1023Z" fill="#5A716A" stroke="#5A716A"/>
</svg>
