<svg width="28" height="20" viewBox="0 0 28 20" fill="none" xmlns="http://www.w3.org/2000/svg">
<path d="M12 4C10.8938 4 10 3.10625 10 2C10 0.89375 10.8938 0 12 0H26C27.1063 0 28 0.89375 28 2C28 3.10625 27.1063 4 26 4H12Z" fill="#F4FFF8"/>
<path d="M12 20C10.8938 20 10 19.1062 10 18C10 16.8937 10.8938 16 12 16H26C27.1063 16 28 16.8937 28 18C28 19.1062 27.1063 20 26 20H12Z" fill="#F4FFF8"/>
<path d="M26 8C27.1063 8 28 8.89375 28 10C28 11.1062 27.1063 12 26 12H2C0.893749 12 0 11.1062 0 10C0 8.89375 0.893749 8 2 8H26Z" fill="#F4FFF8"/>
</svg>
